<svg version="1.1" viewBox="0 0 126.1 99.43" viewbox="0 0 128 128" xmlns="http://www.w3.org/2000/svg">
 <path d="m119 70.76-8.692-1.71c0.3114-1.72 0.5037-3.48 0.6136-5.26l8.197-1.33c1.072-0.17 1.804-1.26 1.649-2.42-0.1557-1.16-1.145-1.94-2.226-1.79l-7.528 1.22c-0.0183-1-0.0458-2-0.1099-3-0.229-3.72-0.9891-7.47-2.207-11.11 2.693-8.31 11.11-36.37 4.698-43.87-4.891-5.72-22.04 6.53-27.7 11.07-2.042 1.62-3.792 3.01-5.303 4.18-5.642-1.86-11.76-2.83-17.82-2.83-6.164-0.01-12.38 1-18.11 2.92-1.758-1.12-3.865-2.49-6.356-4.14-5.971-3.97-24.02-14.57-28.45-8.41-5.239 7.31 2.931 30.22 7.006 40.48-1.337 3.83-2.171 7.78-2.409 11.71-0.06411 0.95-0.09159 1.9-0.1099 2.84l-6.594-1.07c-1.062-0.15-2.061 0.63-2.216 1.79-0.1557 1.17 0.577 2.26 1.649 2.42l7.254 1.18c0.1099 1.88 0.3206 3.75 0.6503 5.58l-7.785 1.53c-1.062 0.21-1.768 1.32-1.575 2.48 0.174 1.02 0.9891 1.75 1.923 1.75 0.1099 0 0.229-0.01 0.348-0.03l8.096-1.59c0.5953 1.97 1.383 3.88 2.363 5.71l-7.739 2.68c-1.026 0.36-1.603 1.56-1.273 2.68 0.2656 0.91 1.035 1.48 1.859 1.48 0.1923 0 0.3938-0.03 0.5953-0.1l8.875-3.08c1.429 1.92 3.123 3.73 5.156 5.38 5.541 4.52 12.43 7.57 19.54 9.23 2.702 0.63 9.672 2.1 16.99 2.1s14.97-1.47 17.68-2.1c7.098-1.66 13.99-4.71 19.54-9.23 2.116-1.73 3.874-3.62 5.33-5.64l9.617 3.33c0.1923 0.07 0.3938 0.1 0.5953 0.1 0.8243 0 1.594-0.57 1.859-1.48 0.3206-1.12-0.2473-2.33-1.273-2.68l-8.527-2.96c0.9342-1.8 1.685-3.68 2.262-5.61l8.976 1.77c0.1191 0.02 0.229 0.03 0.348 0.03 0.925 0 1.749-0.73 1.923-1.75 0.1832-1.13-0.522-2.24-1.584-2.45z" fill="#f28444"/>
 <ellipse cx="38.23" cy="53.06" rx="6.836" ry="7.812" style="paint-order:markers stroke fill"/>
 <ellipse cx="85.75" cy="53.06" rx="6.836" ry="7.812" style="paint-order:markers stroke fill"/>
 <path d="m43.41 73.96c1.66-1.562 3.809 3.125 8.887 3.223 5.078 0.0976 7.227-2.832 9.961-2.832s4.883 2.832 10.06 2.539c5.176-0.293 7.356-3.903 8.301-3.125 1.66 1.367-2.051 14.66-17.48 14.84-17.09 0.2015-21.29-13.28-19.73-14.65z"/>
</svg>
